<?xml version="1.0" standalone="no"?>
<!DOCTYPE svg PUBLIC "-//W3C//DTD SVG 20010904//EN"
 "http://www.w3.org/TR/2001/REC-SVG-20010904/DTD/svg10.dtd">
<svg version="1.0" xmlns="http://www.w3.org/2000/svg"
 width="512.000000pt" height="512.000000pt" viewBox="0 0 512.000000 512.000000"
 preserveAspectRatio="xMidYMid meet">
<metadata>
Created by potrace 1.14, written by Peter Selinger 2001-2017
</metadata>
<g transform="translate(0.000000,512.000000) scale(0.100000,-0.100000)"
fill="#000000" stroke="none">
<path d="M2165 4934 c-16 -2 -73 -9 -125 -15 -327 -37 -697 -162 -993 -336
-81 -47 -97 -65 -97 -106 0 -43 31 -64 148 -102 126 -41 173 -74 203 -140 24
-52 24 -84 -1 -170 -39 -135 -28 -179 112 -458 54 -110 98 -200 96 -201 -2 -1
-23 -8 -48 -15 -84 -25 -159 -93 -190 -176 -19 -49 -14 -157 8 -207 28 -61 57
-90 227 -226 l150 -119 33 -98 c18 -54 55 -145 82 -203 28 -58 50 -107 50
-108 0 -2 -159 -4 -353 -4 -389 0 -407 -2 -498 -61 -64 -41 -121 -111 -150
-186 -20 -51 -23 -81 -27 -251 l-4 -192 -77 -40 c-240 -125 -427 -359 -498
-627 -25 -92 -27 -115 -31 -380 l-4 -282 26 -26 25 -25 2331 0 2331 0 24 25
25 24 0 244 c0 258 -11 360 -51 480 -81 243 -267 460 -489 572 l-68 34 -4 193
c-4 169 -8 200 -27 251 -43 109 -132 194 -244 231 -40 13 -104 16 -402 16
-195 0 -355 2 -355 4 0 1 22 50 50 108 27 58 64 149 82 203 l33 98 150 120
c83 65 165 136 182 156 64 71 84 205 45 295 -37 83 -127 152 -214 164 -31 4
-38 8 -33 21 72 183 189 526 201 591 31 163 3 348 -77 501 -100 193 -274 335
-489 400 -73 23 -87 23 -555 25 -264 1 -493 0 -510 -2z m1015 -167 c209 -63
381 -226 444 -422 48 -151 40 -285 -28 -479 l-43 -121 -13 60 c-24 117 -70
213 -182 384 -61 91 -120 176 -131 189 -40 44 -71 32 -215 -82 -195 -155 -269
-185 -512 -205 -130 -10 -216 -33 -316 -84 -27 -14 -174 -108 -326 -210 l-275
-184 -71 146 c-39 80 -73 158 -76 172 -3 15 4 62 15 105 41 155 9 287 -91 378
-28 24 -70 52 -95 62 -25 11 -45 22 -45 25 0 3 41 25 90 48 292 136 576 209
910 235 25 2 239 2 475 1 367 -1 438 -4 485 -18z m40 -647 c88 -131 115 -179
146 -262 26 -69 28 -85 32 -265 l4 -193 -361 0 c-348 0 -362 -1 -381 -20 -15
-15 -20 -33 -20 -75 l0 -55 -80 0 -80 0 0 55 c0 42 -5 60 -20 75 -19 19 -33
20 -380 20 l-360 0 0 60 0 60 253 169 c139 93 271 178 293 189 69 35 146 53
274 63 69 5 154 17 190 25 98 24 234 94 334 173 49 39 91 71 92 71 2 0 31 -41
64 -90z m-1656 -937 c4 -38 11 -110 17 -161 6 -52 8 -96 6 -99 -9 -9 -147 109
-163 138 -17 34 -18 86 -1 119 17 33 74 70 108 70 27 0 28 -2 33 -67z m306
-64 c0 -73 5 -149 11 -170 17 -55 65 -108 123 -135 44 -21 66 -24 165 -24 134
0 177 11 232 59 56 47 79 100 79 184 l0 67 80 0 80 0 0 -67 c0 -84 23 -137 79
-184 55 -48 98 -59 232 -59 99 0 121 3 165 24 58 27 106 80 123 135 6 21 11
97 11 170 l0 131 75 0 75 0 0 -58 c0 -247 -99 -606 -237 -859 l-45 -83 -558 0
-558 0 -45 83 c-132 243 -218 539 -234 810 l-6 107 76 0 77 0 0 -131z m460 11
c0 -69 -5 -130 -12 -145 -16 -35 -67 -48 -167 -44 -76 4 -85 7 -107 32 -23 26
-24 36 -24 153 l0 124 155 0 155 0 0 -120z m770 -4 c0 -117 -1 -127 -24 -153
-22 -25 -31 -28 -107 -32 -100 -4 -151 9 -167 44 -7 15 -12 76 -12 145 l0 120
155 0 155 0 0 -124z m541 109 c60 -32 86 -113 55 -174 -15 -29 -154 -147 -162
-138 -3 3 0 54 6 113 6 60 14 133 16 162 5 47 8 52 30 52 14 0 38 -7 55 -15z
m349 -1146 c64 -14 114 -51 147 -106 l28 -48 3 -797 2 -798 -1610 0 -1610 0 2
798 3 797 28 47 c32 56 74 88 136 104 60 16 2801 19 2871 3z m-3200 -1229 l0
-530 -231 0 -231 0 5 218 c4 179 8 231 26 297 56 209 186 391 361 504 35 23
65 41 67 41 1 0 3 -238 3 -530z m3645 465 c156 -110 274 -284 326 -480 18 -66
22 -118 26 -297 l5 -218 -231 0 -231 0 0 530 0 531 23 -12 c12 -6 49 -31 82
-54z"/>
<path d="M1877 1832 c-92 -93 -167 -176 -167 -186 0 -9 5 -27 11 -39 14 -29
311 -327 324 -327 13 0 105 92 105 105 0 5 -55 65 -122 132 l-123 123 125 125
125 125 -55 55 -55 55 -168 -168z"/>
<path d="M3020 1945 l-55 -55 125 -125 125 -125 -123 -123 c-67 -67 -122 -127
-122 -133 0 -12 92 -104 105 -104 14 0 310 300 325 328 6 13 9 34 6 45 -3 12
-79 95 -168 185 l-163 162 -55 -55z"/>
<path d="M2497 1687 c-125 -167 -227 -306 -227 -309 0 -8 108 -88 118 -88 12
0 454 589 456 606 1 11 -99 94 -113 94 -4 0 -109 -137 -234 -303z"/>
<path d="M2480 1171 c-86 -28 -159 -90 -201 -171 -20 -37 -24 -60 -24 -130 0
-73 4 -92 27 -135 59 -111 155 -170 278 -169 95 0 162 28 223 93 181 193 55
505 -208 517 -38 2 -81 0 -95 -5z m158 -171 c130 -79 74 -280 -78 -280 -85 0
-150 65 -150 150 0 85 65 150 150 150 27 0 58 -8 78 -20z"/>
</g>
</svg>
